<svg width="272" height="223" viewBox="0 0 272 223" fill="none" xmlns="http://www.w3.org/2000/svg">
<path d="M204 81.5C204 124.302 169.302 159 126.5 159C83.6979 159 49 124.302 49 81.5C49 38.6979 83.6979 4 126.5 4C169.302 4 204 38.6979 204 81.5Z" fill="white"/>
<path d="M272 132.5C272 167.018 244.018 195 209.5 195C174.982 195 147 167.018 147 132.5C147 97.9822 174.982 70 209.5 70C244.018 70 272 97.9822 272 132.5Z" fill="white"/>
<path d="M29.5776 207.38H26.4496V204.116C26.4496 203.708 26.3816 203.447 26.2456 203.334C26.1322 203.198 25.8716 203.13 25.4636 203.13H23.7296C23.3216 203.13 23.0496 203.198 22.9136 203.334C22.7776 203.447 22.7096 203.708 22.7096 204.116V218.634C22.7096 219.042 22.7776 219.314 22.9136 219.45C23.0496 219.563 23.3216 219.62 23.7296 219.62H25.4636C25.8716 219.62 26.1322 219.563 26.2456 219.45C26.3816 219.314 26.4496 219.042 26.4496 218.634V215.404H29.5776V219.008C29.5776 221.025 28.5122 222.034 26.3816 222.034H22.7776C20.6696 222.034 19.6156 221.025 19.6156 219.008V203.708C19.6156 201.713 20.6696 200.716 22.7776 200.716H26.3816C28.5122 200.716 29.5776 201.713 29.5776 203.708V207.38ZM35.39 222H32.33V199.254H35.39V222ZM41.331 205.408H44.969C47.077 205.408 48.131 206.417 48.131 208.434V219.008C48.131 221.003 47.077 222 44.969 222H41.331C39.2456 222 38.203 221.003 38.203 219.008V208.434C38.203 206.417 39.2456 205.408 41.331 205.408ZM45.105 218.566V208.842C45.105 208.434 45.037 208.162 44.901 208.026C44.765 207.89 44.493 207.822 44.085 207.822H42.215C41.807 207.822 41.535 207.89 41.399 208.026C41.2856 208.162 41.229 208.434 41.229 208.842V218.566C41.229 218.974 41.2856 219.246 41.399 219.382C41.535 219.518 41.807 219.586 42.215 219.586H44.085C44.493 219.586 44.765 219.518 44.901 219.382C45.037 219.246 45.105 218.974 45.105 218.566ZM57.3149 205.408H60.3749V222H57.3149V220.674C57.0203 221.558 56.3176 222 55.2069 222H53.9829C51.9429 222 50.9229 221.003 50.9229 219.008V205.408H53.9829V218.532C53.9829 218.94 54.0509 219.212 54.1869 219.348C54.3229 219.461 54.5949 219.518 55.0029 219.518H56.1929C56.6009 219.518 56.8843 219.427 57.0429 219.246C57.2243 219.065 57.3149 218.759 57.3149 218.328V205.408ZM69.5629 199.254H72.6229V222H69.5629V220.674C69.2682 221.558 68.5656 222 67.4549 222H66.2309C64.1909 222 63.1709 221.003 63.1709 219.008V208.4C63.1709 206.383 64.1909 205.374 66.2309 205.374H67.4549C68.5656 205.374 69.2682 205.816 69.5629 206.7V199.254ZM67.2509 219.518H68.4409C68.8489 219.518 69.1322 219.427 69.2909 219.246C69.4722 219.065 69.5629 218.759 69.5629 218.328V209.046C69.5629 208.615 69.4722 208.309 69.2909 208.128C69.1322 207.947 68.8489 207.856 68.4409 207.856H67.2509C66.8429 207.856 66.5709 207.924 66.4349 208.06C66.2989 208.196 66.2309 208.457 66.2309 208.842V218.532C66.2309 218.94 66.2989 219.212 66.4349 219.348C66.5709 219.461 66.8429 219.518 67.2509 219.518ZM88.6329 222L87.7829 217.07H83.2949L82.5129 222H79.4529L83.2269 200.716H87.6809L91.7269 222H88.6329ZM83.6689 214.588H87.3749L85.4369 203.368L83.6689 214.588ZM99.165 218.668V215.914C99.165 215.506 99.097 215.245 98.961 215.132C98.825 214.996 98.553 214.928 98.145 214.928H96.411C94.303 214.928 93.249 213.931 93.249 211.936V208.434C93.249 206.417 94.303 205.408 96.411 205.408H98.893C101.024 205.408 102.089 206.417 102.089 208.434V210.032H99.097V208.74C99.097 208.332 99.029 208.071 98.893 207.958C98.757 207.822 98.485 207.754 98.077 207.754H97.261C96.853 207.754 96.581 207.822 96.445 207.958C96.309 208.071 96.241 208.332 96.241 208.74V211.596C96.241 212.004 96.309 212.276 96.445 212.412C96.581 212.525 96.853 212.582 97.261 212.582H99.029C101.114 212.582 102.157 213.591 102.157 215.608V219.008C102.157 221.003 101.103 222 98.995 222H96.479C94.371 222 93.317 221.003 93.317 219.008V217.376H96.309V218.668C96.309 219.076 96.377 219.348 96.513 219.484C96.649 219.597 96.921 219.654 97.329 219.654H98.145C98.553 219.654 98.825 219.597 98.961 219.484C99.097 219.348 99.165 219.076 99.165 218.668ZM110.321 218.668V215.914C110.321 215.506 110.253 215.245 110.117 215.132C109.981 214.996 109.709 214.928 109.301 214.928H107.567C105.459 214.928 104.405 213.931 104.405 211.936V208.434C104.405 206.417 105.459 205.408 107.567 205.408H110.049C112.18 205.408 113.245 206.417 113.245 208.434V210.032H110.253V208.74C110.253 208.332 110.185 208.071 110.049 207.958C109.913 207.822 109.641 207.754 109.233 207.754H108.417C108.009 207.754 107.737 207.822 107.601 207.958C107.465 208.071 107.397 208.332 107.397 208.74V211.596C107.397 212.004 107.465 212.276 107.601 212.412C107.737 212.525 108.009 212.582 108.417 212.582H110.185C112.271 212.582 113.313 213.591 113.313 215.608V219.008C113.313 221.003 112.259 222 110.151 222H107.635C105.527 222 104.473 221.003 104.473 219.008V217.376H107.465V218.668C107.465 219.076 107.533 219.348 107.669 219.484C107.805 219.597 108.077 219.654 108.485 219.654H109.301C109.709 219.654 109.981 219.597 110.117 219.484C110.253 219.348 110.321 219.076 110.321 218.668ZM122.293 205.408H125.353V222H122.293V220.674C121.999 221.558 121.296 222 120.185 222H118.961C116.921 222 115.901 221.003 115.901 219.008V205.408H118.961V218.532C118.961 218.94 119.029 219.212 119.165 219.348C119.301 219.461 119.573 219.518 119.981 219.518H121.171C121.579 219.518 121.863 219.427 122.021 219.246C122.203 219.065 122.293 218.759 122.293 218.328V205.408ZM134.099 205.374H134.779V208.026H133.555C132.127 208.026 131.413 208.865 131.413 210.542V222H128.353V205.408H131.413V207.448C131.595 206.859 131.912 206.371 132.365 205.986C132.841 205.578 133.419 205.374 134.099 205.374ZM142.643 205.408H145.703V222H142.643V220.674C142.348 221.558 141.646 222 140.535 222H139.311C137.271 222 136.251 221.003 136.251 219.008V208.434C136.251 206.417 137.271 205.408 139.311 205.408H140.535C141.646 205.408 142.348 205.85 142.643 206.734V205.408ZM140.331 219.518H141.521C141.929 219.518 142.212 219.427 142.371 219.246C142.552 219.065 142.643 218.759 142.643 218.328V209.08C142.643 208.649 142.552 208.343 142.371 208.162C142.212 207.981 141.929 207.89 141.521 207.89H140.331C139.923 207.89 139.651 207.958 139.515 208.094C139.379 208.207 139.311 208.468 139.311 208.876V218.532C139.311 218.94 139.379 219.212 139.515 219.348C139.651 219.461 139.923 219.518 140.331 219.518ZM153.875 205.408H155.065C157.128 205.408 158.159 206.417 158.159 208.434V222H155.099V208.876C155.099 208.468 155.031 208.207 154.895 208.094C154.759 207.958 154.487 207.89 154.079 207.89H152.889C152.481 207.89 152.186 207.981 152.005 208.162C151.846 208.343 151.767 208.649 151.767 209.08V222H148.707V205.408H151.767V206.734C152.062 205.85 152.764 205.408 153.875 205.408ZM170.509 210.644H167.483V208.876C167.483 208.468 167.415 208.207 167.279 208.094C167.143 207.958 166.871 207.89 166.463 207.89H165.001C164.593 207.89 164.321 207.958 164.185 208.094C164.049 208.207 163.981 208.468 163.981 208.876V218.532C163.981 218.94 164.049 219.212 164.185 219.348C164.321 219.461 164.593 219.518 165.001 219.518H166.463C166.871 219.518 167.143 219.461 167.279 219.348C167.415 219.212 167.483 218.94 167.483 218.532V216.764H170.509V219.008C170.509 221.003 169.444 222 167.313 222H164.083C161.975 222 160.921 221.003 160.921 219.008V208.434C160.921 206.417 161.975 205.408 164.083 205.408H167.313C169.444 205.408 170.509 206.417 170.509 208.434V210.644ZM176.139 205.408H179.471C181.601 205.408 182.667 206.417 182.667 208.434V214.656H175.969V218.6C175.969 218.985 176.037 219.246 176.173 219.382C176.309 219.518 176.581 219.586 176.989 219.586H178.553C178.961 219.586 179.233 219.518 179.369 219.382C179.505 219.246 179.573 218.974 179.573 218.566V217.206H182.565V219.008C182.565 221.003 181.511 222 179.403 222H176.139C174.031 222 172.977 221.003 172.977 219.008V208.434C172.977 206.417 174.031 205.408 176.139 205.408ZM175.969 212.412H179.641V208.808C179.641 208.423 179.573 208.162 179.437 208.026C179.323 207.89 179.063 207.822 178.655 207.822H176.989C176.581 207.822 176.309 207.89 176.173 208.026C176.037 208.162 175.969 208.423 175.969 208.808V212.412ZM190.483 200.716H197.453C199.561 200.716 200.615 201.713 200.615 203.708V210.78C200.615 212.775 199.561 213.772 197.453 213.772H193.543V222H190.483V200.716ZM197.555 210.304V204.184C197.555 203.776 197.487 203.515 197.351 203.402C197.215 203.266 196.943 203.198 196.535 203.198H193.543V211.324H196.535C196.943 211.324 197.215 211.256 197.351 211.12C197.487 210.984 197.555 210.712 197.555 210.304ZM206.018 205.408H209.656C211.764 205.408 212.818 206.417 212.818 208.434V219.008C212.818 221.003 211.764 222 209.656 222H206.018C203.933 222 202.89 221.003 202.89 219.008V208.434C202.89 206.417 203.933 205.408 206.018 205.408ZM209.792 218.566V208.842C209.792 208.434 209.724 208.162 209.588 208.026C209.452 207.89 209.18 207.822 208.772 207.822H206.902C206.494 207.822 206.222 207.89 206.086 208.026C205.973 208.162 205.916 208.434 205.916 208.842V218.566C205.916 218.974 205.973 219.246 206.086 219.382C206.222 219.518 206.494 219.586 206.902 219.586H208.772C209.18 219.586 209.452 219.518 209.588 219.382C209.724 219.246 209.792 218.974 209.792 218.566ZM221.39 205.374H222.07V208.026H220.846C219.418 208.026 218.704 208.865 218.704 210.542V222H215.644V205.408H218.704V207.448C218.886 206.859 219.203 206.371 219.656 205.986C220.132 205.578 220.71 205.374 221.39 205.374ZM229.356 207.89H227.078V218.396C227.078 218.804 227.135 219.076 227.248 219.212C227.384 219.325 227.656 219.382 228.064 219.382H229.356V222H227.18C225.049 222 223.984 221.003 223.984 219.008V207.89H222.42V205.408H223.984V202.586H227.078V205.408H229.356V207.89ZM237.372 205.408H240.432V222H237.372V220.674C237.077 221.558 236.374 222 235.264 222H234.04C232 222 230.98 221.003 230.98 219.008V208.434C230.98 206.417 232 205.408 234.04 205.408H235.264C236.374 205.408 237.077 205.85 237.372 206.734V205.408ZM235.06 219.518H236.25C236.658 219.518 236.941 219.427 237.1 219.246C237.281 219.065 237.372 218.759 237.372 218.328V209.08C237.372 208.649 237.281 208.343 237.1 208.162C236.941 207.981 236.658 207.89 236.25 207.89H235.06C234.652 207.89 234.38 207.958 234.244 208.094C234.108 208.207 234.04 208.468 234.04 208.876V218.532C234.04 218.94 234.108 219.212 234.244 219.348C234.38 219.461 234.652 219.518 235.06 219.518ZM246.495 222H243.435V199.254H246.495V222Z" fill="black"/>
<mask id="mask0_186_170" style="mask-type:alpha" maskUnits="userSpaceOnUse" x="0" y="19" width="265" height="177">
<path d="M12 150.5C12 125.371 32.371 105 57.5 105H206.5C231.629 105 252 125.371 252 150.5C252 175.629 231.629 196 206.5 196H57.5C32.3711 196 12 175.629 12 150.5Z" fill="#2DBBED"/>
<path d="M133 129.5C133 166.227 103.227 196 66.5 196C29.7731 196 0 166.227 0 129.5C0 92.7731 29.7731 63 66.5 63C103.227 63 133 92.7731 133 129.5Z" fill="#2DBBED"/>
<path d="M205 92.5C205 133.093 172.093 166 131.5 166C90.9071 166 58 133.093 58 92.5C58 51.9071 90.9071 19 131.5 19C172.093 19 205 51.9071 205 92.5Z" fill="#2DBBED"/>
<path d="M265 137C265 169.585 238.585 196 206 196C173.415 196 147 169.585 147 137C147 104.415 173.415 78 206 78C238.585 78 265 104.415 265 137Z" fill="#2DBBED"/>
</mask>
<g mask="url(#mask0_186_170)">
<rect x="-43" y="-37" width="366" height="238" fill="url(#paint0_linear_186_170)"/>
</g>
<path d="M85.362 179.289L83.892 174.127C83.108 174.694 82.1062 175.118 80.8867 175.401C79.6671 175.663 78.502 175.793 77.3913 175.793C76.8904 175.793 76.4222 175.728 75.9867 175.597C75.5511 175.445 75.0611 175.107 74.5167 174.585C73.9722 174.062 73.504 173.376 73.112 172.527C72.72 171.656 72.3824 170.414 72.0993 168.803C71.838 167.191 71.7073 165.307 71.7073 163.151C71.7073 159.536 71.9142 156.77 72.328 154.854C72.7418 152.916 73.3407 151.62 74.1247 150.967C74.9087 150.292 76.0302 149.954 77.4893 149.954C77.7507 149.954 78.0773 150.008 78.4693 150.117L80.168 154.005H85.1333L85.6233 146.491C85.558 146.404 85.4491 146.284 85.2967 146.132C85.166 145.98 84.8176 145.707 84.2513 145.315C83.7069 144.923 83.0862 144.575 82.3893 144.27C81.7142 143.965 80.7778 143.693 79.58 143.453C78.404 143.214 77.1409 143.094 75.7907 143.094C72.8507 143.094 70.3571 143.54 68.31 144.433C66.2629 145.326 64.6513 146.666 63.4753 148.451C62.3211 150.215 61.4936 152.273 60.9927 154.625C60.4918 156.956 60.2413 159.732 60.2413 162.955C60.2413 165.982 60.4918 168.65 60.9927 170.959C61.4936 173.245 62.3102 175.303 63.4427 177.133C64.5969 178.94 66.1867 180.323 68.212 181.281C70.2373 182.218 72.6764 182.686 75.5293 182.686C76.8796 182.686 78.1427 182.566 79.3187 182.327C80.4947 182.109 81.4311 181.837 82.128 181.51C82.8467 181.162 83.4564 180.824 83.9573 180.497C84.48 180.149 84.8502 179.866 85.068 179.648L85.362 179.289ZM141.356 182H153.345L142.434 143.715H128.943L129.727 146.361L119.763 182H129.367L130.609 175.891H139.886L141.356 182ZM134.823 154.952L138.285 169.227H131.948L134.823 154.952ZM199.746 182V173.899C199.768 173.899 199.898 173.91 200.138 173.931C200.377 173.953 200.541 173.964 200.628 173.964C200.715 173.964 200.878 173.975 201.118 173.997C201.379 173.997 201.575 174.008 201.706 174.029C201.858 174.029 202.054 174.04 202.294 174.062C202.555 174.062 202.773 174.073 202.947 174.095C203.143 174.095 203.35 174.095 203.568 174.095C203.807 174.095 204.036 174.095 204.254 174.095C205.953 174.095 207.564 173.714 209.089 172.951C210.613 172.189 211.974 171.1 213.172 169.685C214.37 168.269 215.317 166.462 216.014 164.262C216.733 162.041 217.092 159.58 217.092 156.879C217.092 152.393 216.003 149.028 213.825 146.785C211.647 144.542 208.446 143.421 204.221 143.421C202.719 143.421 200.802 143.475 198.472 143.584C196.142 143.671 194.399 143.715 193.245 143.715H188.933V182H199.746ZM206.377 155.442V160.277C206.377 162.454 205.898 164.12 204.94 165.275C204.003 166.429 202.675 167.006 200.955 167.006H199.746V150.019H201.314C202.947 150.019 204.199 150.52 205.071 151.522C205.942 152.524 206.377 153.83 206.377 155.442Z" fill="white"/>
<circle cx="80" cy="61" r="33.5" fill="#41A5C4" stroke="white" stroke-width="7"/>
<circle cx="53.5" cy="26.5" r="23" fill="#49B5D4" stroke="white" stroke-width="7"/>
<circle cx="32.5" cy="60.5" r="13" fill="#49B5D4" stroke="white" stroke-width="7"/>
<circle cx="37" cy="96" r="13" fill="white"/>
<circle cx="61.5" cy="110.5" r="6.5" fill="white"/>
<defs>
<linearGradient id="paint0_linear_186_170" x1="140" y1="-37" x2="140" y2="201" gradientUnits="userSpaceOnUse">
<stop stop-color="#5EE2FF"/>
<stop offset="1" stop-color="#0C3458"/>
</linearGradient>
</defs>
</svg>
