<svg width="71" height="70" viewBox="0 0 71 70" fill="none" xmlns="http://www.w3.org/2000/svg">
<ellipse cx="35.5" cy="35" rx="35.5" ry="35" fill="#26A5D0"/>
<rect x="9" y="34" width="54" height="8" rx="4" fill="#D9D9D9"/>
<path d="M69.3475 67.1587V67.1587C62.973 65.6721 56.335 65.7364 49.9905 67.3462L46.7953 68.157L69.0445 45.5241L68.3884 48.1486C66.8155 54.4402 67.1494 61.0574 69.3475 67.1587V67.1587Z" fill="#26A5D0"/>
<rect x="18" y="30" width="36" height="16" rx="8" fill="#D9D9D9" fill-opacity="0.46"/>
<rect x="44.1816" y="20.0208" width="23.7881" height="16.927" rx="8.46352" transform="rotate(89.5421 44.1816 20.0208)" fill="#D9D9D9"/>
<rect x="11" y="24" width="50" height="28" rx="14" fill="white"/>
<rect x="18" y="30" width="36" height="16" rx="8" fill="#515151"/>
<circle cx="27.5" cy="38.5" r="2.5" fill="#4ACDF7"/>
<circle cx="44.5" cy="38.5" r="2.5" fill="#4ACDF7"/>
<circle cx="35.5" cy="12.5" r="2.5" fill="#D9D9D9"/>
<rect x="35" y="13" width="1" height="8" fill="#D9D9D9"/>
</svg>
