<svg width="22" height="24" viewBox="0 0 22 24" fill="none" xmlns="http://www.w3.org/2000/svg">
<path d="M19.25 3V2.5H19.75V3H19.25ZM10.4519 13.3379C10.2653 13.5414 9.94903 13.5552 9.74547 13.3686C9.54191 13.182 9.52816 12.8657 9.71476 12.6621L10.4519 13.3379ZM18.75 11V3H19.75V11H18.75ZM19.25 3.5H11.9167V2.5H19.25V3.5ZM19.6186 3.33786L10.4519 13.3379L9.71476 12.6621L18.8814 2.66214L19.6186 3.33786Z" fill="#0070AD"/>
<path d="M18.3334 15V15C18.3334 16.8692 18.3334 17.8038 17.9315 18.5C17.6681 18.9561 17.2894 19.3348 16.8334 19.5981C16.1372 20 15.2026 20 13.3334 20H9.66671C6.83828 20 5.42407 20 4.54539 19.1213C3.66671 18.2426 3.66671 16.8284 3.66671 14V8.58333C3.66671 7.10722 3.66671 6.36917 3.92077 5.79176C4.22299 5.10492 4.77163 4.55628 5.45847 4.25407C6.03587 4 6.77393 4 8.25004 4V4" stroke="#0070AD" stroke-linecap="round"/>
</svg>
